####
#
# OBJ File Generated by Meshlab
#
####
# Object crayola.obj
#
# Vertices: 8
# Faces: 12
#
####
mtllib ./crayola.obj.mtl

vn 0.577350 0.577350 0.577350
v 0.035500 0.013500 0.047500 0.749020 0.749020 0.749020
vn -0.577350 0.577350 0.577350
v -0.035500 0.013500 0.047500 0.749020 0.749020 0.749020
vn 0.577350 -0.577350 0.577350
v 0.035500 -0.012500 0.047500 0.749020 0.749020 0.749020
vn -0.577350 -0.577350 -0.577350
v -0.035500 -0.012500 -0.047500 0.749020 0.749020 0.749020
vn 0.577350 -0.577350 -0.577350
v 0.035500 -0.012500 -0.047500 0.749020 0.749020 0.749020
vn 0.577350 0.577350 -0.577350
v 0.035500 0.013500 -0.047500 0.749020 0.749020 0.749020
vn -0.577350 0.577350 -0.577350
v -0.035500 0.013500 -0.047500 0.749020 0.749020 0.749020
vn -0.577350 -0.577350 0.577350
v -0.035500 -0.012500 0.047500 0.749020 0.749020 0.749020
# 8 vertices, 0 vertices normals


usemtl material_0
vt 0.000000 0.000000
vt 1.000000 0.000000
vt 0.000000 1.000000
f 1/1/1 2/2/2 3/3/3
vt 1.000000 1.000000
f 8/4/8 3/3/3 2/2/2

usemtl material_1
f 6/1/6 7/2/7 2/4/2
f 2/4/2 1/3/1 6/1/6

usemtl material_2
f 7/1/7 4/2/4 8/4/8
f 8/4/8 2/3/2 7/1/7
f 6/2/6 1/4/1 3/3/3
f 6/2/6 3/3/3 5/1/5

usemtl material_3
f 8/3/8 4/1/4 5/2/5
f 5/2/5 3/4/3 8/3/8

usemtl material_4
f 4/3/4 6/2/6 5/4/5
f 6/2/6 4/3/4 7/1/7
# 12 faces, 4 coords texture

# End of File
