####
#
# OBJ File Generated by Meshlab
#
####
# Object ziploc.obj
#
# Vertices: 8
# Faces: 12
#
####
mtllib ./ziploc.obj.mtl

vn -0.577350 -0.577350 0.577350
v -0.097500 -0.024000 0.031000 0.752941 0.752941 0.752941
vn 0.577350 -0.577350 0.577350
v 0.097500 -0.024000 0.031000 0.752941 0.752941 0.752941
vn -0.577350 0.577350 0.577350
v -0.097500 0.024000 0.031000 0.752941 0.752941 0.752941
vn 0.577350 0.577350 -0.577350
v 0.097500 0.024000 -0.031000 0.752941 0.752941 0.752941
vn -0.577350 -0.577350 -0.577350
v -0.097500 -0.024000 -0.031000 0.752941 0.752941 0.752941
vn -0.577350 0.577350 -0.577350
v -0.097500 0.024000 -0.031000 0.752941 0.752941 0.752941
vn 0.577350 -0.577350 -0.577350
v 0.097500 -0.024000 -0.031000 0.752941 0.752941 0.752941
vn 0.577350 0.577350 0.577350
v 0.097500 0.024000 0.031000 0.752941 0.752941 0.752941
# 8 vertices, 0 vertices normals


usemtl material_0
vt 1.000000 -0.000000
vt 1.000000 1.000000
vt 0.000000 1.000000
f 6/1/6 3/2/3 8/3/8
vt 0.000000 -0.000000
f 8/3/8 4/4/4 6/1/6

usemtl material_1
f 5/1/5 3/3/3 6/4/6
f 5/1/5 1/2/1 3/3/3

usemtl material_2
f 5/4/5 7/1/7 2/2/2
f 2/2/2 1/3/1 5/4/5

usemtl material_3
f 8/2/8 2/3/2 7/4/7
f 7/4/7 4/1/4 8/2/8

usemtl material_4
f 1/4/1 2/1/2 3/3/3
f 8/2/8 3/3/3 2/1/2

usemtl material_5
f 4/3/4 5/1/5 6/2/6
f 5/1/5 4/3/4 7/4/7
# 12 faces, 4 coords texture

# End of File
