####
#
# OBJ File Generated by Meshlab
#
####
# Object raisins.obj
#
# Vertices: 8
# Faces: 12
#
####
mtllib ./raisins.obj.mtl

vn -0.577350 -0.577350 0.577350
v -0.038500 -0.045000 0.065000 0.752941 0.752941 0.752941
vn 0.577350 -0.577350 0.577350
v 0.038500 -0.045000 0.065000 0.752941 0.752941 0.752941
vn -0.577350 0.577350 0.577350
v -0.038500 0.045000 0.065000 0.752941 0.752941 0.752941
vn 0.577350 0.577350 -0.577350
v 0.038500 0.045000 -0.065000 0.752941 0.752941 0.752941
vn -0.577350 -0.577350 -0.577350
v -0.038500 -0.045000 -0.065000 0.752941 0.752941 0.752941
vn -0.577350 0.577350 -0.577350
v -0.038500 0.045000 -0.065000 0.752941 0.752941 0.752941
vn 0.577350 -0.577350 -0.577350
v 0.038500 -0.045000 -0.065000 0.752941 0.752941 0.752941
vn 0.577350 0.577350 0.577350
v 0.038500 0.045000 0.065000 0.752941 0.752941 0.752941
# 8 vertices, 0 vertices normals


usemtl material_0
vt 0.019019 0.996907
vt 0.990100 0.996907
vt 0.990100 1.961008
f 5/1/5 7/2/7 2/3/2
vt 0.019019 1.961008
f 2/3/2 1/4/1 5/1/5

usemtl material_1
vt 0.991540 0.971668
vt 0.009003 0.971668
vt 0.009003 0.000000
f 8/5/8 2/6/2 7/7/7
vt 0.991540 0.000000
f 7/7/7 4/8/4 8/5/8

usemtl material_2
vt 1.000000 -0.000000
vt 1.000000 0.990571
vt 0.000000 0.990571
f 6/9/6 3/10/3 8/11/8
vt 0.000000 -0.000000
f 8/11/8 4/12/4 6/9/6

usemtl material_3
vt 0.000000 0.973091
f 5/9/5 3/13/3 6/12/6
vt 1.000000 0.973091
f 5/9/5 1/14/1 3/13/3

usemtl material_4
vt 0.080677 0.100773
vt 0.933356 0.100773
vt 0.080677 0.924344
f 1/15/1 2/16/2 3/17/3
vt 0.933356 0.924344
f 8/18/8 3/17/3 2/16/2

usemtl material_5
vt 0.000000 1.000000
vt 1.000000 1.000000
f 4/19/4 5/9/5 6/20/6
f 5/9/5 4/19/4 7/12/7
# 12 faces, 20 coords texture

# End of File
