####
#
# OBJ File Generated by Meshlab
#
####
# Object milo.obj
#
# Vertices: 8
# Faces: 12
#
####
mtllib ./milo.obj.mtl

vn 0.577351 0.577350 0.577350
v 0.046494 0.026855 0.060000 0.749020 0.749020 0.749020
vn -0.577350 0.577351 0.577350
v -0.047506 0.026855 0.060000 0.749020 0.749020 0.749020
vn 0.577350 -0.577351 0.577350
v 0.046494 -0.028145 0.060000 0.749020 0.749020 0.749020
vn -0.577351 -0.577350 -0.577350
v -0.047506 -0.028145 -0.060000 0.749020 0.749020 0.749020
vn 0.577351 0.577350 -0.577350
v 0.046494 0.026855 -0.060000 0.749020 0.749020 0.749020
vn 0.577350 -0.577351 -0.577350
v 0.046494 -0.028145 -0.060000 0.749020 0.749020 0.749020
vn -0.577350 0.577351 -0.577350
v -0.047506 0.026855 -0.060000 0.749020 0.749020 0.749020
vn -0.577351 -0.577350 0.577350
v -0.047506 -0.028145 0.060000 0.749020 0.749020 0.749020
# 8 vertices, 0 vertices normals


usemtl material_0
vt 0.000000 -0.000000
vt 1.000000 -0.000000
vt 1.000000 1.000000
f 5/1/5 7/2/7 2/3/2
vt 0.000000 1.000000
f 2/3/2 1/4/1 5/1/5

usemtl material_1
f 8/3/8 2/4/2 7/1/7
f 7/1/7 4/2/4 8/3/8

usemtl material_2
f 6/2/6 3/3/3 8/4/8
f 8/4/8 4/1/4 6/2/6

usemtl material_3
f 5/2/5 3/4/3 6/1/6
f 5/2/5 1/3/1 3/4/3

usemtl material_4
f 1/1/1 2/2/2 3/4/3
f 8/3/8 3/4/3 2/2/2

usemtl material_5
vt 0.978402 -0.020703
vt 0.021598 1.020703
vt -0.020703 0.021598
f 4/5/4 5/6/5 6/7/6
vt 1.020703 0.978402
f 5/6/5 4/5/4 7/8/7
# 12 faces, 8 coords texture

# End of File
